<svg width="42" height="44" viewBox="0 0 42 44" fill="none" xmlns="http://www.w3.org/2000/svg">
<path d="M19.8315 0.205194C20.5183 -0.068398 21.2817 -0.068398 21.9685 0.205194C24.1826 1.08693 24.6152 4.48236 27.2276 4.67139C29.0673 4.8045 30.8725 3.27088 32.7186 3.73063C33.4631 3.91607 34.1062 4.39074 34.5092 5.05245C35.7438 7.08013 34.1505 10.0604 36.1643 11.7429C37.5633 12.9113 39.8751 12.7601 41.0916 14.1924C41.6038 14.7957 41.8554 15.5827 41.7897 16.3761C41.595 18.7366 38.5855 20.2126 39.2469 22.7566C39.7046 24.5175 41.6355 25.7553 41.7897 27.6239C41.8554 28.4174 41.6038 29.2043 41.0916 29.8076C39.5629 31.6072 36.2578 31.0145 35.3047 33.4536C34.6354 35.1657 35.4947 37.329 34.5092 38.9475C34.1062 39.6092 33.4631 40.084 32.7186 40.2695C30.4265 40.8401 28.0999 38.3778 25.8942 39.7668C24.3194 40.7581 23.7552 43.0836 21.9685 43.7947C21.2817 44.0684 20.5183 44.0684 19.8315 43.7947C18.0448 43.0836 17.4805 40.7581 15.9058 39.7668C13.7274 38.3952 11.3347 40.8304 9.0814 40.2695C8.33684 40.084 7.69384 39.6092 7.29091 38.9475C6.05628 36.9199 7.64948 33.9394 5.63574 32.2571C4.2368 31.0886 1.92487 31.2401 0.708491 29.8076C0.196265 29.2043 -0.055349 28.4174 0.010233 27.6239C0.164676 25.7553 2.09527 24.5175 2.5531 22.7566C3.20777 20.2393 0.202483 18.7021 0.010233 16.3761C-0.055349 15.5827 0.196265 14.7957 0.708491 14.1924C2.23687 12.3923 5.54178 12.9856 6.49524 10.5464C7.16455 8.83431 6.30538 6.671 7.29091 5.05245C7.69384 4.39074 8.33684 3.91607 9.0814 3.73063C10.9275 3.27089 12.7327 4.80451 14.5723 4.67139C17.1848 4.48241 17.6174 1.08693 19.8315 0.205194Z" fill="#00874E"/>
<path d="M19.8315 0.205194C20.5183 -0.068398 21.2817 -0.068398 21.9685 0.205194C24.1826 1.08693 24.6152 4.48236 27.2276 4.67139C29.0673 4.8045 30.8725 3.27088 32.7186 3.73063C33.4631 3.91607 34.1062 4.39074 34.5092 5.05245C35.7438 7.08013 34.1505 10.0604 36.1643 11.7429C37.5633 12.9113 39.8751 12.7601 41.0916 14.1924C41.6038 14.7957 41.8554 15.5827 41.7897 16.3761C41.595 18.7366 38.5855 20.2126 39.2469 22.7566C39.7046 24.5175 41.6355 25.7553 41.7897 27.6239C41.8554 28.4174 41.6038 29.2043 41.0916 29.8076C39.5629 31.6072 36.2578 31.0145 35.3047 33.4536C34.6354 35.1657 35.4947 37.329 34.5092 38.9475C34.1062 39.6092 33.4631 40.084 32.7186 40.2695C30.4265 40.8401 28.0999 38.3778 25.8942 39.7668C24.3194 40.7581 23.7552 43.0836 21.9685 43.7947C21.2817 44.0684 20.5183 44.0684 19.8315 43.7947C18.0448 43.0836 17.4805 40.7581 15.9058 39.7668C13.7274 38.3952 11.3347 40.8304 9.0814 40.2695C8.33684 40.084 7.69384 39.6092 7.29091 38.9475C6.05628 36.9199 7.64948 33.9394 5.63574 32.2571C4.2368 31.0886 1.92487 31.2401 0.708491 29.8076C0.196265 29.2043 -0.055349 28.4174 0.010233 27.6239C0.164676 25.7553 2.09527 24.5175 2.5531 22.7566C3.20777 20.2393 0.202483 18.7021 0.010233 16.3761C-0.055349 15.5827 0.196265 14.7957 0.708491 14.1924C2.23687 12.3923 5.54178 12.9856 6.49524 10.5464C7.16455 8.83431 6.30538 6.671 7.29091 5.05245C7.69384 4.39074 8.33684 3.91607 9.0814 3.73063C10.9275 3.27089 12.7327 4.80451 14.5723 4.67139C17.1848 4.48241 17.6174 1.08693 19.8315 0.205194Z" fill="url(#paint0_linear_12_3644)" fill-opacity="0.8" style="mix-blend-mode:plus-lighter"/>
<path d="M20.4424 1.73828C20.7371 1.62095 21.0637 1.6209 21.3584 1.73828C21.5828 1.82773 21.8217 2.00268 22.1191 2.33984C22.4422 2.70612 22.7063 3.10529 23.1123 3.66602C23.8191 4.6422 24.9774 6.16312 27.1084 6.31738C28.4409 6.41379 29.7279 5.90279 30.501 5.64062C31.4424 5.32137 31.922 5.23323 32.3193 5.33203C32.6376 5.41131 32.92 5.61566 33.0996 5.91016C33.2295 6.12355 33.3194 6.41603 33.3623 6.87109C33.409 7.36594 33.3901 7.8428 33.3945 8.53809C33.4023 9.75307 33.4728 11.6438 35.1064 13.0088V13.0098C36.1149 13.8519 37.4292 14.1976 38.1973 14.4414C39.1292 14.7373 39.5683 14.9479 39.834 15.2607V15.2598C40.0324 15.4935 40.1443 15.7935 40.1494 16.1055L40.1455 16.2402C40.1248 16.4913 40.0252 16.7825 39.7939 17.1768C39.542 17.6062 39.2506 17.9776 38.8496 18.5449C38.1472 19.5389 37.1148 21.1117 37.6504 23.1719C37.9779 24.4314 38.8252 25.476 39.3008 26.125C39.8032 26.8107 40.0471 27.2285 40.123 27.6016L40.1455 27.7598C40.1716 28.0744 40.0866 28.3844 39.9131 28.6357L39.834 28.7393C39.6751 28.9263 39.4305 29.1005 39.0166 29.2812C38.5653 29.4783 38.1129 29.6059 37.457 29.8262C36.3106 30.2112 34.543 30.8685 33.7676 32.8525C33.289 34.0765 33.3692 35.4352 33.376 36.249C33.3842 37.2321 33.3196 37.7275 33.0996 38.0889C32.92 38.3838 32.6378 38.5886 32.3193 38.668C32.0874 38.7256 31.7933 38.7239 31.3564 38.626C30.881 38.5194 30.4383 38.3542 29.7822 38.1416C28.6395 37.7714 26.8176 37.2348 25.0146 38.3701C23.881 39.0839 23.1373 40.2625 22.6631 40.9336C22.0856 41.7507 21.7447 42.108 21.3584 42.2617H21.3574C21.0628 42.379 20.7369 42.3791 20.4424 42.2617H20.4414C20.0552 42.1079 19.7141 41.7507 19.1367 40.9336C18.6625 40.2625 17.9189 39.0839 16.7852 38.3701C14.9959 37.2436 13.1616 37.7779 12.0205 38.1416C11.3605 38.352 10.9127 38.5174 10.4336 38.624C9.99071 38.7226 9.70045 38.7227 9.48047 38.668C9.16213 38.5887 8.87971 38.3845 8.7002 38.0898V38.0889C8.57034 37.8755 8.48042 37.583 8.4375 37.1279C8.39088 36.6332 8.40973 36.157 8.40527 35.4619C8.39748 34.2469 8.32714 32.3562 6.69336 30.9912V30.9902C5.68495 30.1481 4.3705 29.8024 3.60254 29.5586C2.67069 29.2628 2.23144 29.0521 1.96582 28.7393C1.76781 28.5059 1.65559 28.2066 1.65039 27.8945L1.6543 27.7598C1.68878 27.3426 1.92481 26.9086 2.49902 26.125C2.94493 25.5165 3.71827 24.5604 4.08301 23.4053L4.15039 23.1719C4.68268 21.125 3.64703 19.5423 2.9502 18.5479C2.54981 17.9765 2.25784 17.5996 2.00488 17.167C1.77179 16.7683 1.67418 16.4808 1.6543 16.2402C1.62457 15.8805 1.7391 15.5268 1.96582 15.2598C2.12458 15.0728 2.36969 14.8994 2.7832 14.7188C3.23437 14.5218 3.68696 14.3931 4.34277 14.1729C5.48914 13.7879 7.2566 13.1314 8.03223 11.1475C8.51071 9.92348 8.43157 8.56486 8.4248 7.75098C8.41665 6.76768 8.48008 6.27166 8.7002 5.91016C8.87966 5.61562 9.16205 5.41134 9.48047 5.33203C9.87792 5.23314 10.3579 5.32119 11.2998 5.64062C12.0729 5.90281 13.3591 6.41378 14.6914 6.31738C16.8224 6.16322 17.9807 4.64222 18.6875 3.66602C19.0935 3.10529 19.3576 2.70613 19.6807 2.33984C19.9783 2.00243 20.2179 1.8277 20.4424 1.73828Z" stroke="#7DFFC8" stroke-opacity="0.1" stroke-width="3.3" stroke-linejoin="round"/>
<path d="M29 16.5L18 27.5L13 22.5" stroke="white" stroke-width="3" stroke-linecap="round" stroke-linejoin="round"/>
<defs>
<linearGradient id="paint0_linear_12_3644" x1="20.9" y1="0" x2="20.9" y2="44" gradientUnits="userSpaceOnUse">
<stop stop-color="white" stop-opacity="0.6"/>
<stop offset="1" stop-color="white" stop-opacity="0.1"/>
</linearGradient>
</defs>
</svg>
