<svg width="39" height="36" viewBox="0 0 39 36" fill="none" xmlns="http://www.w3.org/2000/svg">
<path fill-rule="evenodd" clip-rule="evenodd" d="M17.4181 6.11532C20.3277 6.05754 22.4464 6.74579 24.0173 7.84389C20.7885 10.5211 19.0265 14.3864 18.2305 18.0984C17.4065 21.9417 17.5326 25.9895 18.4165 29.1942C18.8558 30.7873 19.5333 32.3575 20.5406 33.5962C21.563 34.8535 23.1421 36 25.2426 36C27.5642 36 29.3902 34.9409 30.6945 33.5273C31.9363 32.181 32.7542 30.4779 33.3137 28.8668C34.4363 25.6355 34.8133 21.8996 34.9001 19.4766L34.9016 19.4343L34.902 19.3922C34.9231 16.7634 34.5441 13.6465 33.4291 10.6723C34.3262 10.662 35.3193 10.753 36.4196 10.9698C36.4209 8.83178 37.0394 6.80185 38.4828 5.15996C35.3245 4.42426 32.4792 4.38542 29.9725 4.94241C27.1425 1.8818 22.9806 -0.108555 17.294 0.00458432C8.64455 0.176638 4.34032 7.02055 2.27676 13.9188C0.179555 20.9298 -0.0996329 29.3492 0.025074 35.5037L6.1999 35.3812C6.0781 29.3689 6.38203 21.727 8.19889 15.6536C10.0494 9.46741 12.9901 6.20353 17.4181 6.11532ZM24.2722 19.3672C24.8503 16.6708 25.9933 14.3586 27.6479 12.8239C28.4173 14.8875 28.739 17.188 28.7264 19.3023C28.6462 21.4562 28.3053 24.484 27.4732 26.8798C27.0526 28.0902 26.5795 28.9225 26.1333 29.4062C25.8508 29.7126 25.6356 29.8289 25.4432 29.8689C25.4177 29.8419 25.3874 29.8075 25.3522 29.7642C25.0569 29.4012 24.6805 28.6942 24.3746 27.5849C23.7677 25.385 23.6374 22.3272 24.2722 19.3672ZM25.5283 29.9492C25.5364 29.9554 25.5405 29.9575 25.5405 29.9575L25.5364 29.9542C25.5364 29.9542 25.5318 29.9512 25.5283 29.9492Z" fill="#6D56FA"/>
</svg>
