<svg width="99" height="74" viewBox="0 0 99 74" fill="none" xmlns="http://www.w3.org/2000/svg">
<path d="M3.95032 8.09277C3.95032 4.24782 7.06727 1.13086 10.9122 1.13086H31.4917C32.9074 1.13086 34.2894 1.56245 35.4535 2.36809L46.9016 10.2909C48.0658 11.0966 49.4478 11.5281 50.8635 11.5281H86.4665C90.3115 11.5281 93.4285 14.6451 93.4285 18.4901V64.5428C93.4285 69.7187 89.2326 73.9146 84.0567 73.9146H13.3221C8.14623 73.9146 3.95032 69.7187 3.95032 64.5428V8.09277Z" fill="url(#paint0_linear_12_3246)"/>
<path d="M10.9122 1.66602H31.4913C32.7981 1.66602 34.074 2.06496 35.1486 2.80859L46.5968 10.7314C47.8504 11.599 49.3389 12.0635 50.8634 12.0635H86.4669C90.0159 12.0637 92.8927 14.9412 92.8927 18.4902V64.543C92.8926 69.423 88.9368 73.3788 84.0568 73.3789H13.3224C8.44229 73.3789 4.48554 69.423 4.48547 64.543V8.09277C4.48547 4.54358 7.36304 1.66602 10.9122 1.66602Z" stroke="white" stroke-opacity="0.08" stroke-width="1.07106"/>
<g filter="url(#filter0_di_12_3246)">
<rect width="45.2091" height="45.2071" rx="3.56238" transform="matrix(0.991795 0.127837 -0.124157 0.992263 50.7651 4.44122)" fill="white"/>
<rect x="0.128786" y="0.166259" width="44.9122" height="44.9103" rx="3.41394" transform="matrix(0.991795 0.127837 -0.124157 0.992263 50.7868 4.42605)" stroke="black" stroke-opacity="0.04" stroke-width="0.296865"/>
</g>
<path d="M57.1015 33.63L58.3831 23.6869L62.3059 24.1925C63.0601 24.2897 63.684 24.5166 64.1777 24.8731C64.6718 25.2263 65.0253 25.6749 65.2381 26.219C65.4546 26.7602 65.5204 27.361 65.4352 28.0212C65.3501 28.6815 65.1326 29.2458 64.7827 29.714C64.4328 30.1822 63.9694 30.5223 63.3926 30.7342C62.819 30.9465 62.1503 31.0035 61.3865 30.905L58.8861 30.5827L59.1033 28.898L61.2638 29.1765C61.6683 29.2286 62.0107 29.202 62.2908 29.0966C62.5746 28.9884 62.7972 28.8181 62.9588 28.5855C63.1241 28.3502 63.2278 28.069 63.2699 27.7421C63.3125 27.412 63.2832 27.1154 63.1822 26.8523C63.0849 26.5864 62.9123 26.3683 62.6644 26.1982C62.4169 26.0248 62.0893 25.9118 61.6815 25.8593L60.2638 25.6765L59.2037 33.9009L57.1015 33.63ZM69.4782 35.2253L65.9534 34.7709L67.235 24.8279L70.7889 25.2859C71.789 25.4148 72.6243 25.7249 73.2948 26.216C73.9657 26.7039 74.4476 27.3435 74.7404 28.1348C75.0365 28.9265 75.118 29.8385 74.9849 30.871C74.8514 31.9068 74.5409 32.7716 74.0533 33.4656C73.569 34.16 72.937 34.6593 72.1574 34.9635C71.3811 35.2682 70.488 35.3554 69.4782 35.2253ZM68.2878 33.2407L69.6229 33.4128C70.2444 33.4929 70.7813 33.4502 71.2337 33.2848C71.6897 33.1165 72.0545 32.8131 72.3282 32.3746C72.6056 31.9332 72.792 31.3419 72.8876 30.6007C72.9823 29.866 72.9512 29.2516 72.7945 28.7576C72.6409 28.2639 72.3663 27.8798 71.9707 27.605C71.575 27.3303 71.0665 27.1528 70.4451 27.0727L69.1051 26.9L68.2878 33.2407ZM75.9001 36.053L77.1817 26.1099L83.7652 26.9585L83.5418 28.6917L79.0606 28.1141L78.7552 30.4834L82.7994 31.0047L82.576 32.7379L78.5318 32.2166L78.0024 36.324L75.9001 36.053Z" fill="#6D56FA"/>
<g filter="url(#filter1_di_12_3246)">
<rect width="45.2091" height="45.2071" rx="3.56238" transform="matrix(0.97437 -0.224951 0.228564 0.973529 2.84314 18.3976)" fill="white"/>
<rect x="0.178554" y="0.111113" width="44.9122" height="44.9103" rx="3.41394" transform="matrix(0.97437 -0.224951 0.228564 0.973529 2.82232 18.4408)" stroke="black" stroke-opacity="0.04" stroke-width="0.296865"/>
</g>
<path d="M18.9322 43.5627L16.677 33.7943L20.531 32.9045C21.2719 32.7335 21.9357 32.7292 22.5225 32.8918C23.1086 33.0513 23.596 33.349 23.9848 33.7851C24.3759 34.2173 24.6464 34.7578 24.7962 35.4064C24.9459 36.0551 24.9381 36.6598 24.7728 37.2204C24.6075 37.7811 24.2913 38.261 23.8242 38.6603C23.3602 39.0588 22.753 39.3447 22.0025 39.5179L19.5461 40.085L19.164 38.4299L21.2865 37.9399C21.684 37.8481 21.9957 37.7042 22.2217 37.508C22.4502 37.3079 22.5997 37.0707 22.6704 36.7965C22.7435 36.5184 22.743 36.2187 22.6689 35.8976C22.594 35.5732 22.4635 35.3053 22.2773 35.0937C22.0936 34.8782 21.8559 34.7338 21.5643 34.6604C21.272 34.5839 20.9255 34.5919 20.5249 34.6844L19.1321 35.0059L20.9975 43.0859L18.9322 43.5627ZM31.0915 40.7555L27.6286 41.5549L25.3734 31.7865L28.8649 30.9805C29.8474 30.7536 30.7384 30.7539 31.5378 30.9813C32.3365 31.2056 33.0106 31.6377 33.5603 32.2778C34.1132 32.9171 34.5067 33.744 34.7409 34.7584C34.9758 35.7759 34.9853 36.6948 34.7694 37.515C34.5567 38.3344 34.1378 39.0223 33.5126 39.5786C32.8906 40.1341 32.0836 40.5264 31.0915 40.7555ZM29.2854 39.3086L30.5971 39.0057C31.2076 38.8648 31.6962 38.6381 32.0628 38.3257C32.4319 38.0094 32.6685 37.5981 32.7727 37.0917C32.8793 36.5815 32.8485 35.9622 32.6804 35.2341C32.5138 34.5123 32.271 33.947 31.9523 33.5383C31.6367 33.1288 31.2457 32.8641 30.7792 32.744C30.3127 32.624 29.7742 32.6344 29.1637 32.7754L27.8473 33.0793L29.2854 39.3086ZM37.4006 39.2989L35.1454 29.5305L41.6132 28.0373L42.0063 29.7401L37.6038 30.7565L38.1412 33.0841L42.1144 32.1668L42.5075 33.8696L38.5343 34.7869L39.4659 38.8221L37.4006 39.2989Z" fill="#6D56FA"/>
<g filter="url(#filter2_di_12_3246)">
<rect width="45.2091" height="45.2071" rx="3.56238" transform="matrix(1 0 0.00370914 0.999993 26.3126 4.15613)" fill="white"/>
<rect x="0.148983" y="0.148431" width="44.9122" height="44.9103" rx="3.41394" transform="matrix(1 0 0.00370914 0.999993 26.3121 4.15613)" stroke="black" stroke-opacity="0.04" stroke-width="0.296865"/>
</g>
<path d="M36.3284 32.2954V22.2701H40.2837C41.0441 22.2701 41.6919 22.4153 42.2271 22.7057C42.7623 22.9929 43.1702 23.3927 43.4509 23.9051C43.7348 24.4142 43.8768 25.0016 43.8768 25.6673C43.8768 26.3331 43.7332 26.9205 43.446 27.4296C43.1588 27.9387 42.7427 28.3352 42.1977 28.6191C41.656 28.903 41 29.045 40.2299 29.045H37.7088V27.3464H39.8872C40.2951 27.3464 40.6313 27.2762 40.8956 27.1359C41.1632 26.9923 41.3623 26.7948 41.4928 26.5436C41.6266 26.289 41.6935 25.9969 41.6935 25.6673C41.6935 25.3344 41.6266 25.044 41.4928 24.796C41.3623 24.5447 41.1632 24.3505 40.8956 24.2135C40.628 24.0731 40.2886 24.003 39.8774 24.003H38.448V32.2954H36.3284ZM48.8075 32.2954H45.2536V22.2701H48.8368C49.8452 22.2701 50.7133 22.4708 51.4411 22.8722C52.1688 23.2703 52.7285 23.843 53.1201 24.5904C53.515 25.3377 53.7124 26.2319 53.7124 27.2729C53.7124 28.3173 53.515 29.2147 53.1201 29.9653C52.7285 30.7159 52.1656 31.2919 51.4313 31.6933C50.7003 32.0947 49.8257 32.2954 48.8075 32.2954ZM47.3732 30.4793H48.7193C49.3459 30.4793 49.873 30.3683 50.3005 30.1464C50.7313 29.9212 51.0544 29.5737 51.2697 29.1037C51.4884 28.6305 51.5977 28.0203 51.5977 27.2729C51.5977 26.5321 51.4884 25.9268 51.2697 25.4568C51.0544 24.9869 50.7329 24.641 50.3054 24.419C49.8779 24.1971 49.3508 24.0862 48.7242 24.0862H47.3732V30.4793ZM55.2826 32.2954V22.2701H61.9205V24.0176H57.4022V26.4065H61.4799V28.1541H57.4022V32.2954H55.2826Z" fill="#6D56FA"/>
<path d="M3.95032 41.8629H93.4285V64.5426C93.4285 69.7185 89.2326 73.9144 84.0567 73.9144H13.3221C8.14623 73.9144 3.95032 69.7185 3.95032 64.5426V41.8629Z" fill="#E1E1E1"/>
<defs>
<filter id="filter0_di_12_3246" x="42.0043" y="0.7109" width="56.7469" height="56.9099" filterUnits="userSpaceOnUse" color-interpolation-filters="sRGB">
<feFlood flood-opacity="0" result="BackgroundImageFix"/>
<feColorMatrix in="SourceAlpha" type="matrix" values="0 0 0 0 0 0 0 0 0 0 0 0 0 0 0 0 0 0 127 0" result="hardAlpha"/>
<feOffset dy="-0.593729"/>
<feGaussianBlur stdDeviation="1.78119"/>
<feComposite in2="hardAlpha" operator="out"/>
<feColorMatrix type="matrix" values="0 0 0 0 0.68623 0 0 0 0 0.68623 0 0 0 0 0.68623 0 0 0 0.25 0"/>
<feBlend mode="normal" in2="BackgroundImageFix" result="effect1_dropShadow_12_3246"/>
<feBlend mode="normal" in="SourceGraphic" in2="effect1_dropShadow_12_3246" result="shape"/>
<feColorMatrix in="SourceAlpha" type="matrix" values="0 0 0 0 0 0 0 0 0 0 0 0 0 0 0 0 0 0 127 0" result="hardAlpha"/>
<feOffset/>
<feGaussianBlur stdDeviation="4.74983"/>
<feComposite in2="hardAlpha" operator="arithmetic" k2="-1" k3="1"/>
<feColorMatrix type="matrix" values="0 0 0 0 0.674316 0 0 0 0 0.674316 0 0 0 0 0.674316 0 0 0 0.12 0"/>
<feBlend mode="normal" in2="shape" result="effect2_innerShadow_12_3246"/>
</filter>
<filter id="filter1_di_12_3246" x="-5.81741e-05" y="4.78091" width="60.0695" height="59.8867" filterUnits="userSpaceOnUse" color-interpolation-filters="sRGB">
<feFlood flood-opacity="0" result="BackgroundImageFix"/>
<feColorMatrix in="SourceAlpha" type="matrix" values="0 0 0 0 0 0 0 0 0 0 0 0 0 0 0 0 0 0 127 0" result="hardAlpha"/>
<feOffset dy="-0.593729"/>
<feGaussianBlur stdDeviation="1.78119"/>
<feComposite in2="hardAlpha" operator="out"/>
<feColorMatrix type="matrix" values="0 0 0 0 0.68623 0 0 0 0 0.68623 0 0 0 0 0.68623 0 0 0 0.25 0"/>
<feBlend mode="normal" in2="BackgroundImageFix" result="effect1_dropShadow_12_3246"/>
<feBlend mode="normal" in="SourceGraphic" in2="effect1_dropShadow_12_3246" result="shape"/>
<feColorMatrix in="SourceAlpha" type="matrix" values="0 0 0 0 0 0 0 0 0 0 0 0 0 0 0 0 0 0 127 0" result="hardAlpha"/>
<feOffset/>
<feGaussianBlur stdDeviation="4.74983"/>
<feComposite in2="hardAlpha" operator="arithmetic" k2="-1" k3="1"/>
<feColorMatrix type="matrix" values="0 0 0 0 0.674316 0 0 0 0 0.674316 0 0 0 0 0.674316 0 0 0 0.12 0"/>
<feBlend mode="normal" in2="shape" result="effect2_innerShadow_12_3246"/>
</filter>
<filter id="filter2_di_12_3246" x="22.7634" y="2.3663e-05" width="52.4752" height="52.3316" filterUnits="userSpaceOnUse" color-interpolation-filters="sRGB">
<feFlood flood-opacity="0" result="BackgroundImageFix"/>
<feColorMatrix in="SourceAlpha" type="matrix" values="0 0 0 0 0 0 0 0 0 0 0 0 0 0 0 0 0 0 127 0" result="hardAlpha"/>
<feOffset dy="-0.593729"/>
<feGaussianBlur stdDeviation="1.78119"/>
<feComposite in2="hardAlpha" operator="out"/>
<feColorMatrix type="matrix" values="0 0 0 0 0.68623 0 0 0 0 0.68623 0 0 0 0 0.68623 0 0 0 0.25 0"/>
<feBlend mode="normal" in2="BackgroundImageFix" result="effect1_dropShadow_12_3246"/>
<feBlend mode="normal" in="SourceGraphic" in2="effect1_dropShadow_12_3246" result="shape"/>
<feColorMatrix in="SourceAlpha" type="matrix" values="0 0 0 0 0 0 0 0 0 0 0 0 0 0 0 0 0 0 127 0" result="hardAlpha"/>
<feOffset/>
<feGaussianBlur stdDeviation="4.74983"/>
<feComposite in2="hardAlpha" operator="arithmetic" k2="-1" k3="1"/>
<feColorMatrix type="matrix" values="0 0 0 0 0.674316 0 0 0 0 0.674316 0 0 0 0 0.674316 0 0 0 0.12 0"/>
<feBlend mode="normal" in2="shape" result="effect2_innerShadow_12_3246"/>
</filter>
<linearGradient id="paint0_linear_12_3246" x1="48.6894" y1="20.7266" x2="48.6894" y2="52.7197" gradientUnits="userSpaceOnUse">
<stop stop-color="#E1E1E1"/>
<stop offset="1" stop-color="#AAAAAA"/>
</linearGradient>
</defs>
</svg>
